<svg version="1.1" id="Layer_1" xmlns="http://www.w3.org/2000/svg" xmlns:xlink="http://www.w3.org/1999/xlink" x="0px" y="0px"
	 width="24" height="24" viewBox="0 0 16 16" style="enable-background:new 0 0 16 16;" xml:space="preserve">
	<g id="Group_1" transform="translate(296 277)">
		<path fill="#ffffff" d="M-288.9-266.8v2.7h-1.4c-0.1,0-0.2,0.1-0.2,0.2s0,0.1,0.1,0.2l2.4,2.3l2.4-2.3
			c0.1-0.1,0.1-0.2,0-0.3c0,0-0.1-0.1-0.2-0.1h-1.4v-2.7L-288.9-266.8L-288.9-266.8z"/>
		<path fill="#ffffff" d="M-283-272.8c0-0.2,0.1-0.3,0.1-0.5c0-1.9-1.5-3.4-3.4-3.4c-0.1,0-0.1,0-0.2,0
			c-1.7,0-3.1,1.2-3.6,2.8c-0.3-0.1-0.7-0.1-1-0.1c-1.6-0.1-2.9,1.2-3,2.7c0,0.2,0,0.5,0.1,0.7h-0.1c-1,0.1-1.8,0.9-1.9,1.9
			c0,1,0.8,1.7,1.7,1.9h0.6h4.8v-4.2c0-0.1,0.1-0.2,0.2-0.2l0,0h1.3c0.1,0,0.2,0.1,0.2,0.2l0,0v4.2h4.3l0.6-0.1
			c1.4-0.2,2.3-1.4,2.2-2.8C-280.2-271.2-281.4-272.6-283-272.8z"/>
	</g>
</svg>
