<?xml version="1.0" encoding="utf-8"?>
<!-- Generator: Adobe Illustrator 21.0.0, SVG Export Plug-In . SVG Version: 6.00 Build 0)  -->
<svg version="1.1" id="Layer_1" xmlns="http://www.w3.org/2000/svg" xmlns:xlink="http://www.w3.org/1999/xlink" x="0px" y="0px"
	 viewBox="0 0 630 630" style="enable-background:new 0 0 630 630;" xml:space="preserve">
<style type="text/css">
	.st0{fill:#F7DF1E;}
	.st1{fill:#343434;}
	.st2{fill-rule:evenodd;clip-rule:evenodd;fill:#343434;}
	.st3{display:none;}
</style>
<g id="logo">
	<rect id="background" class="st0" width="630" height="630"/>
	<path id="s" class="st1" d="M227.7,535.1l36.2-21c9.5,15.6,22,27,43.9,27c18.4,0,30.2-9.2,30.2-22c0-15.3-12.1-20.7-32.4-29.5
		l-11.1-4.7c-32.1-13.7-53.4-30.8-53.4-67.1c0-33.4,25.4-58.8,65.2-58.8c28.3,0,48.6,9.8,63.3,35.6L335,416.9
		c-7.6-13.7-15.9-19.1-28.6-19.1c-13,0-21.3,8.3-21.3,19.1c0,13.4,8.3,18.8,27.4,27l11.1,4.7c37.8,16.2,59.2,32.8,59.2,69.9
		c0,40.1-31.5,62-73.8,62C267.5,580.6,240.8,560.9,227.7,535.1"/>
	<path class="st2" d="M54.3,361.5c48.1,0,96.3,0,144.5,0c0,13.8,0,27.5,0,41.3c-32.8,0-65.6,0-98.4,0c0,15.3,0,30.7,0,46
		c28.6,0,57.2,0,85.7,0c0,0,0.2,27.4,0.1,39.7c-29.1,0-56.7,0-85.8,0c0,17.5,0,34.9,0,52.4c34.4,0,68.8,0,103.2,0
		c0,13.2,0,26.5,0,39.7c-49.7,0-99.5,0-149.2,0C54.3,507.6,54.3,434.5,54.3,361.5z"/>
	<g id="VI0q3y.tif" class="st3">
		
			<image style="display:inline;overflow:visible;" width="110" height="141" id="Layer_1_1_" xlink:href="2BF5BCA3741FB2EF.png"  transform="matrix(1 0 0 1 274 73)">
		</image>
	</g>
	<g>
		<path class="st1" d="M495.3,432.6c-47.3,0-85.7,33.1-85.7,74s38.4,74,85.7,74s85.7-33.1,85.7-74S542.6,432.6,495.3,432.6z
			 M495.9,541.1c-18.6,0-33.7-15.1-33.7-33.7c0-18.6,15.1-33.7,33.7-33.7c18.6,0,33.7,15.1,33.7,33.7
			C529.6,526,514.5,541.1,495.9,541.1z"/>
		<polygon class="st1" points="420.7,470.3 496.7,361.5 549.9,361.5 471.8,470.2 		"/>
	</g>
</g>
</svg>
